<svg width="34" height="34" viewBox="0 0 34 34" fill="none" xmlns="http://www.w3.org/2000/svg">
<g id="Group 20">
<path id="Vector" d="M17 0C26.4 0 34 7.6 34 17C34 26.4 26.4 34 17 34C7.6 34 0 26.4 0 17C0 7.6 7.6 0 17 0ZM17 32C25.3 32 32 25.3 32 17C32 8.7 25.3 2 17 2C8.7 2 2 8.7 2 17C2 25.3 8.7 32 17 32Z" fill="#BED6FF"/>
<path id="Vector_2" d="M17.3002 7.30019L18.7002 8.7002L10.4002 17.0002L18.7002 25.3002L17.3002 26.7002L7.60019 17.0002L17.3002 7.30019Z" fill="#BED6FF"/>
<path id="Vector_3" d="M26 18L9 18V16L26 16V18Z" fill="#BED6FF"/>
</g>
</svg>
